<?xml version="1.0" encoding="UTF-8"?>
<svg id="Layer_2" data-name="Layer 2" xmlns="http://www.w3.org/2000/svg" viewBox="0 0 51.06 38.91">
  <defs>
    <style>
      .cls-1 {
        fill: #fff;
        stroke-width: 0px;
      }
    </style>
  </defs>
  <g id="Layer_1-2" data-name="Layer 1">
    <path class="cls-1" d="m11.38.43l-3.95,5.7,3.95,5.69,3.96-5.69L11.38.43Zm9.94,28.92l-2.85,4.78,2.85,4.78,2.85-4.78-2.85-4.78Zm-5.84-14.01l-2.77,4.64-5.95-9.96L0,21.36l6.76,11.34,4.07-6.81,4.65,7.79,5.47-9.17-5.47-9.17Zm15.37-3.51h.01S24.08,0,24.08,0l-6.76,11.82,6.86,11.99c.49-4.73,3.25-8.8,7.19-11.07l-.52-.91Zm7.73.98c-6.89,0-12.48,5.58-12.48,12.48s5.59,12.48,12.48,12.48,12.48-5.59,12.48-12.48-5.58-12.48-12.48-12.48Zm7.32,13.72l-6.08,6.08-6.92.15,8.84-8.85-.89-.89-3.04,3.05h-1.74v1.73l-4.99,4.99.18-8.74,6.09-6.08,8.74-.18-.19,8.74Z"/>
  </g>
</svg>