<?xml version="1.0" encoding="UTF-8"?>
<svg id="Layer_2" data-name="Layer 2" xmlns="http://www.w3.org/2000/svg" viewBox="0 0 47.65 47.66">
  <defs>
    <style>
      .cls-1 {
        fill: #cc9507;
        stroke-width: 0px;
      }
    </style>
  </defs>
  <g id="Layer_1-2" data-name="Layer 1">
    <g>
      <path class="cls-1" d="m12.02,32.38c-1.94,0-3.52,1.58-3.52,3.52s1.58,3.52,3.52,3.52,3.52-1.58,3.52-3.52-1.58-3.52-3.52-3.52Z"/>
      <path class="cls-1" d="m12.02,29.88c-3.32,0-6.02,2.7-6.02,6.02s2.7,6.02,6.02,6.02,6.02-2.7,6.02-6.02-2.7-6.02-6.02-6.02Zm0,11.03c-2.77,0-5.02-2.25-5.02-5.02s2.25-5.02,5.02-5.02,5.02,2.25,5.02,5.02-2.25,5.02-5.02,5.02Z"/>
      <path class="cls-1" d="m36.18,19.07c-4.01,0-7.27-3.26-7.27-7.27s3.26-7.26,7.27-7.26,7.27,3.26,7.27,7.26c0,2.01-.82,3.82-2.13,5.14l6.33-6.33V0h-10.61l-13.21,13.22L10.61,0H0v10.61l13.22,13.22L0,37.05v10.61h10.61l5.42-5.42c-1.16.74-2.54,1.17-4.01,1.17-4.15,0-7.52-3.37-7.52-7.51s3.37-7.52,7.52-7.52,7.51,3.37,7.51,7.52c0,1.47-.43,2.85-1.17,4.01l5.47-5.47,13.21,13.22h10.61v-10.61l-13.22-13.22,6.89-6.89c-1.32,1.31-3.13,2.13-5.14,2.13ZM2.59,11.47l6.5-6.5,1.41,1.41-5.09,5.09,3.68,3.68,5.09-5.09,1.41,1.41-6.5,6.5-6.5-6.5Zm11.5,6.5l-1.41-1.41,5.09-5.09-3.68-3.68-5.09,5.09-1.41-1.41,6.5-6.5,6.5,6.5-6.5,6.5Zm26.71,24.17l-1.65-1.65v-1.8h1.8l1.65,1.66-1.8,1.79Zm-1.7-6.76l1.36-1.36,1.69,1.68-2.1,2.1-1.02-1.03h-1.8v1.8l1.03,1.02-2.1,2.1-1.68-1.69,1.36-1.36-7.37-7.37,1.16-1.16h4.2l5.27,5.27Z"/>
      <path class="cls-1" d="m36.18,6.04c-3.18,0-5.77,2.59-5.77,5.77s2.59,5.77,5.77,5.77,5.77-2.59,5.77-5.77-2.59-5.77-5.77-5.77Zm0,10.03c-1.57,0-2.95-.86-3.69-2.13l3.69-2.14,3.69,2.14c-.74,1.27-2.12,2.13-3.69,2.13Z"/>
    </g>
  </g>
</svg>