<?xml version="1.0" encoding="UTF-8"?>
<svg id="Layer_2" data-name="Layer 2" xmlns="http://www.w3.org/2000/svg" viewBox="0 0 44.49 44.49">
  <defs>
    <style>
      .cls-1 {
        fill: #fbfbfb;
        stroke-width: 0px;
      }
    </style>
  </defs>
  <g id="Layer_1-2" data-name="Layer 1">
    <path class="cls-1" d="m22.24,0C9.96,0,0,9.96,0,22.24c0,5.26,1.83,10.1,4.89,13.91l8.13-8.13v-7.28h7.88v-7.88h7.27l7.97-7.97C32.33,1.82,27.5,0,22.24,0Zm-2.84,15.32h-3.94v3.94h-4.12v-3.94h-3.94v-4.12h3.94v-3.94h4.12v3.94h3.94v4.12Zm21.46-5.25l-10.67,10.67h6.83v8.24h-7.88v7.88h-8.24v-6.82l-10.82,10.82c3.49,2.3,7.67,3.63,12.16,3.63,12.29,0,22.25-9.96,22.25-22.25,0-4.49-1.33-8.68-3.63-12.17Zm-19.96,10.06v.61h-.61l.61-.61Z"/>
  </g>
</svg>