<?xml version="1.0" encoding="UTF-8"?>
<svg id="Layer_2" data-name="Layer 2" xmlns="http://www.w3.org/2000/svg" viewBox="0 0 51.07 38.91">
  <defs>
    <style>
      .cls-1 {
        fill: #fff;
        stroke-width: 0px;
      }
    </style>
  </defs>
  <g id="Layer_1-2" data-name="Layer 1">
    <path class="cls-1" d="m11.38.43l-3.95,5.7,3.95,5.69,3.96-5.69L11.38.43Zm9.94,28.92l-2.85,4.78,2.85,4.78,2.85-4.78-2.85-4.78Zm-5.84-14.01l-2.77,4.64-5.95-9.96L0,21.36l6.76,11.34,4.07-6.81,4.65,7.79,5.47-9.17-5.47-9.17Zm15.37-3.51h.01S24.08,0,24.08,0l-6.76,11.82,6.86,11.99c.49-4.73,3.25-8.8,7.19-11.07l-.52-.91Zm7.74.98c-6.9,0-12.49,5.58-12.49,12.48s5.59,12.48,12.49,12.48,12.48-5.59,12.48-12.48-5.59-12.48-12.48-12.48Zm2.15,19.53v-7.05h-.79l-7.04,7.05v-7.05h-3.53l7.05-7.06v7.06h.79l7.04-7.06v7.06h3.53l-7.05,7.05Z"/>
  </g>
</svg>