<?xml version="1.0" encoding="UTF-8"?>
<svg id="Layer_2" data-name="Layer 2" xmlns="http://www.w3.org/2000/svg" viewBox="0 0 51.06 38.91">
  <defs>
    <style>
      .cls-1 {
        fill: #fff;
        stroke-width: 0px;
      }
    </style>
  </defs>
  <g id="Layer_1-2" data-name="Layer 1">
    <path class="cls-1" d="m11.38.43l-3.95,5.7,3.95,5.69,3.96-5.69L11.38.43Zm9.93,28.92l-2.84,4.78,2.84,4.78,2.86-4.78-2.86-4.78Zm-5.83-14.01l-2.77,4.64-5.95-9.96L0,21.36l6.76,11.34,4.07-6.81,4.65,7.79,5.47-9.17-5.47-9.17Zm15.37-3.51h.01S24.08,0,24.08,0l-6.77,11.82,6.87,11.99c.49-4.73,3.25-8.8,7.19-11.07l-.52-.91Zm7.73.98c-6.89,0-12.48,5.58-12.48,12.48s5.59,12.48,12.48,12.48,12.48-5.59,12.48-12.48-5.58-12.48-12.48-12.48Zm-7.18,20.28v-2.45l1.07-1.07,1.18.03.05,1.19-2.3,2.3Zm14.24-11.61l-6.8,6.81,2.48,2.49-4.52.02-4.35-4.34.03-4.53,2.48,2.49,6.85-6.84,3.96-.1-.13,4Z"/>
  </g>
</svg>