<?xml version="1.0" encoding="UTF-8"?>
<svg id="Layer_2" data-name="Layer 2" xmlns="http://www.w3.org/2000/svg" viewBox="0 0 50.51 52.28">
  <defs>
    <style>
      .cls-1 {
        fill: #fff;
        stroke-width: 0px;
      }
    </style>
  </defs>
  <g id="Layer_1-2" data-name="Layer 1">
    <path class="cls-1" d="m25.14,28.3l5.4,5.42v1.26c0,1.04-.84,1.88-1.88,1.88H11.98l3.12-2.87,5.95,2.24-10.72-10.72v-2.58l12.95-12.97,8.22,8.22-6.37,6.37v3.75Zm-20.17,2.41l-4.96,4.96,1.43,1.43,4.96-4.96-1.43-1.43Zm1.43,1.43l-4.96-4.96-1.43,1.43,4.96,4.96,1.43-1.43Zm3.71-1.43l-4.96,4.96,1.43,1.43,4.96-4.96-1.43-1.43Zm1.43,1.43l-4.96-4.96-1.43,1.43,4.96,4.96,1.43-1.43Zm34.02-13.46l-4.81.99c.3,1.6.45,3.26.45,4.94,0,1.26-.09,2.5-.25,3.72l4.9.4c.18-1.37.26-2.74.26-4.11,0-1.99-.18-3.98-.55-5.93m1.16-1.77c.58,2.47.89,5.05.89,7.7,0,1.95-.17,3.86-.49,5.72l-7.93-.64c.34-1.64.51-3.34.51-5.08,0-2.1-.25-4.15-.74-6.1l7.76-1.6h0Zm-9.82-14.77l-3.34,3.61c2.23,2.3,4.05,4.99,5.33,7.91l4.61-1.73c-1.56-3.62-3.81-6.96-6.6-9.78m-.06-2.14c3.79,3.5,6.77,7.87,8.62,12.79l-7.41,2.79c-1.41-3.76-3.69-7.1-6.59-9.77l5.38-5.81h0Zm9.14,34.95l-7.53-2.44c-1.24,3.82-3.36,7.27-6.13,10.07l5.65,5.55c.7-.71,1.37-1.45,2.02-2.23l-2.03-3.51h4.55c1.44-2.31,2.62-4.81,3.47-7.44Zm-4.55,9.44h9.1l-4.55,7.88-4.55-7.88Z"/>
  </g>
</svg>