<?xml version="1.0" encoding="UTF-8"?>
<svg id="Layer_2" data-name="Layer 2" xmlns="http://www.w3.org/2000/svg" viewBox="0 0 51.45 44.33">
  <defs>
    <style>
      .cls-1 {
        fill: #fff;
        stroke-width: 0px;
      }
    </style>
  </defs>
  <g id="Layer_1-2" data-name="Layer 1">
    <path class="cls-1" d="m41.05,29.95l8.82,8.86v2.06c0,1.69-1.37,3.06-3.06,3.06h-27.25l5.1-4.68,9.72,3.65-5.05-5.05c2.62-.84,5-2.29,6.98-4.27,2.46-2.46,4.05-5.5,4.74-8.7v5.07Zm-4.78-21.31c.6.57,1.09,1.19,1.42,1.61,3.07,3.9,4.24,8.73,3.6,13.34l10.16-10.16L38.02,0l-5.68,5.69c.83.46,1.62.99,2.37,1.58.48.36,1.01.82,1.56,1.37ZM2.33,28.11l-2.33,2.33,5.78,5.78-5.78,5.78,2.33,2.33,5.78-5.78,2.33-2.33L2.33,28.11Zm12.07,7.87l-.24.24-5.78,5.78,2.33,2.33,6.8-6.8c-1.08-.42-2.13-.93-3.11-1.55Zm26.89-12.39c-.06.43-.14.86-.24,1.29v-1.05l.24-.24Zm-7.81,7.16c-2.66,2.66-6.15,3.95-9.64,3.95-2.95,0-5.91-.94-8.38-2.86-.44-.33-.85-.7-1.24-1.09-.39-.41-.76-.83-1.09-1.22-4.19-5.35-3.82-13.11,1.09-18.02,4.91-4.93,12.68-5.3,18.02-1.09.44.33.85.7,1.24,1.09.39.37.74.81,1.07,1.22,4.21,5.35,3.84,13.11-1.07,18.02Zm-18-3.6l14.42-14.4c-1.79-1.33-3.93-1.96-6.07-1.96-2.64,0-5.28,1-7.31,3.03-3.62,3.6-3.97,9.32-1.05,13.33Zm16.74-12.09l-14.42,14.45c4.04,2.92,9.73,2.55,13.38-1.07,3.62-3.64,3.97-9.38,1.05-13.38Z"/>
  </g>
</svg>