<?xml version="1.0" encoding="UTF-8"?>
<svg id="Layer_2" data-name="Layer 2" xmlns="http://www.w3.org/2000/svg" viewBox="0 0 51.07 38.91">
  <defs>
    <style>
      .cls-1 {
        fill: #fff;
        stroke-width: 0px;
      }
    </style>
  </defs>
  <g id="Layer_1-2" data-name="Layer 1">
    <path class="cls-1" d="m11.38.43l-3.95,5.7,3.95,5.69,3.96-5.69L11.38.43Zm9.94,28.92l-2.85,4.78,2.85,4.78,2.85-4.78-2.85-4.78Zm-5.84-14.01l-2.77,4.64-5.95-9.96L0,21.36l6.76,11.34,4.07-6.81,4.65,7.79,5.47-9.17-5.47-9.17Zm15.37-3.51h.01S24.08,0,24.08,0l-6.76,11.82,6.86,11.99c.49-4.73,3.25-8.8,7.19-11.07l-.52-.91Zm7.74.98c-6.9,0-12.48,5.58-12.48,12.48s5.58,12.48,12.48,12.48,12.48-5.59,12.48-12.48-5.59-12.48-12.48-12.48Zm-2.26,20.12l-1.36,1.36v-2.04c0-.62-.24-1.2-.67-1.64l-.69-.69c-.43-.43-.68-1.02-.68-1.63s.25-1.2.68-1.63l1.36-1.37v2.05c0,.61.24,1.2.68,1.63l.68.69c.44.43.68,1.02.68,1.63s-.24,1.2-.68,1.64Zm6.56-1.37l-2.73,2.73v-4.09c0-1.22-.48-2.4-1.35-3.27l-1.37-1.38c-.87-.86-1.36-2.04-1.36-3.27s.49-2.4,1.36-3.27l2.72-2.72v4.08c0,1.23.49,2.41,1.35,3.27l1.38,1.38c.87.87,1.35,2.05,1.35,3.27s-.48,2.41-1.35,3.27Z"/>
  </g>
</svg>