<?xml version="1.0" encoding="UTF-8"?>
<svg id="Layer_2" data-name="Layer 2" xmlns="http://www.w3.org/2000/svg" viewBox="0 0 46.99 49.48">
  <defs>
    <style>
      .cls-1 {
        fill: #fff;
        stroke-width: 0px;
      }
    </style>
  </defs>
  <g id="Layer_1-2" data-name="Layer 1">
    <path class="cls-1" d="m46.99,41.48v-1h-7.96v1h.98v7h-.98v1h7.96v-1h-.98v-7h.98Zm-2.98,7h-2v-7h2v7Zm-10.99-22.2c0,6.83-5.56,12.38-12.39,12.38s-12.38-5.55-12.38-12.38,5.55-12.38,12.38-12.38c3.42,0,6.5,1.39,8.75,3.62-.41.22-9.85,5.08-11.14,6.37-1.32,1.32-1.32,3.46,0,4.78,1.32,1.32,3.47,1.32,4.78,0,1.29-1.29,6.15-10.73,6.37-11.14,2.24,2.24,3.63,5.33,3.63,8.75Zm-3.63-8.76h0s0,0,0,0h0Zm-5.27-11.57v-3.42h1.44c.3,0,.54-.24.54-.54V.54c0-.29-.24-.54-.54-.54h-9.85c-.3,0-.55.25-.55.54v1.45c0,.3.25.54.55.54h1.43v3.42C7.42,7.61,0,16.09,0,26.28c0,11.38,9.26,20.63,20.63,20.63s20.64-9.25,20.64-20.63c0-10.19-7.42-18.67-17.15-20.33Zm-3.49,36.46c-8.89,0-16.13-7.24-16.13-16.13S11.74,10.15,20.63,10.15s16.14,7.23,16.14,16.13-7.24,16.13-16.14,16.13Z"/>
  </g>
</svg>