<?xml version="1.0" encoding="UTF-8"?>
<svg id="Layer_2" data-name="Layer 2" xmlns="http://www.w3.org/2000/svg" viewBox="0 0 52.05 37.98">
  <defs>
    <style>
      .cls-1 {
        fill: #cc9409;
        stroke-width: 0px;
      }
    </style>
  </defs>
  <g id="Layer_1-2" data-name="Layer 1">
    <path class="cls-1" d="m33.76,0l-8.5,8.5h7.93l.57-.57,10.35,10.35-15.73,15.74,3.97,3.96,19.7-19.7L33.76,0ZM14.06,19.7l3.97,3.97.61-.61v-7.94l-4.58,4.58Zm19.95-5.38l-.61.61v7.93l4.58-4.58-3.97-3.96Zm-14.22,14.22l-1.51,1.51-10.35-10.35,10.71-10.71.49-.49,4.53-4.53-3.97-3.97L0,19.7l18.28,18.28,9.44-9.44h-7.93Zm-.66-20.04l-.49.49v-.49h.49Zm1.01,18.54h11.76v-4.54l-4.07-3.98,4.07-3.97v-4.54h-11.76v4.54l4.07,3.97-4.07,3.98v4.54Zm3.14-13.21h5.49l-2.74,2.77-2.74-2.77Z"/>
  </g>
</svg>