<?xml version="1.0" encoding="UTF-8"?>
<svg id="Layer_2" data-name="Layer 2" xmlns="http://www.w3.org/2000/svg" viewBox="0 0 50.66 50.66">
  <defs>
    <style>
      .cls-1 {
        fill: #fff;
        stroke-width: 0px;
      }
    </style>
  </defs>
  <g id="Layer_1-2" data-name="Layer 1">
    <path class="cls-1" d="m50.65,0h0s-.01.01-.01.01c0-.01.01-.01.01-.01Zm.01,50.66s0-.01-.01-.01h0s.01.01.01.01ZM28.25,9.24c0,1.48-1.19,3.05-2.17,4.12h-1.5c-.98-1.07-2.17-2.64-2.17-4.12C22.41,7.3,25.16.45,25.33.02c.16.43,2.92,7.28,2.92,9.22Zm14.27,3.09c.19.59.29,1.24.29,1.9,0,3.23-2.39,5.89-5.51,6.31v-.3h-6.88v-6.88h-.31c.43-3.11,3.1-5.5,6.31-5.5.67,0,1.31.1,1.91.28C43.12,4.72,50.03.4,50.64.01c-.38.62-4.71,7.52-8.12,12.32Zm-29.16,12.26v1.49c-1.07.98-2.64,2.18-4.13,2.18C7.3,28.26.44,25.5.02,25.34c.42-.17,7.28-2.92,9.21-2.92,1.49,0,3.06,1.19,4.13,2.17Zm7.17-11.23h-.3v6.88h-6.87v.31c-3.12-.42-5.51-3.08-5.51-6.31,0-.66.1-1.31.29-1.9C4.7,7.53.35.58,0,.01c.56.36,7.51,4.71,12.32,8.13.6-.18,1.24-.28,1.9-.28,3.23,0,5.89,2.39,6.31,5.5Zm.01,23.94c-.42,3.12-3.08,5.51-6.31,5.51-.66,0-1.3-.1-1.9-.28C7.54,45.95.63,50.27.02,50.66c.38-.62,4.71-7.52,8.12-12.31-.19-.6-.29-1.24-.29-1.91,0-3.24,2.39-5.9,5.51-6.32v.31h6.87v6.87h.31Zm29.12-12.35h-12.36v-.36c1.07-.98,2.64-2.17,4.12-2.17s6.19,1.73,8.24,2.53Zm-13.86-3.21v3.21h-9.08v10.85h-4.99v-6.87h-6.87v-7.19h6.87v-6.88h7.19v6.88h6.88Zm-8.27,22.84c-.82,2.64-2.09,5.79-2.2,6.07-.16-.42-2.92-7.28-2.92-9.22,0-1.48,1.2-3.05,2.17-4.12h1.5c.21.23.43.49.64.76v5.88l.81.63Zm20.79-17.13v15.28l-9.55,7.49-9.55-7.49v-15.28h19.1Zm-3.54,7.93h-3.94v-3.94h-4.13v3.94h-3.94v4.13h3.94v3.94h4.13v-3.94h3.94v-4.13Z"/>
  </g>
</svg>