<?xml version="1.0" encoding="UTF-8"?>
<svg id="Layer_2" data-name="Layer 2" xmlns="http://www.w3.org/2000/svg" viewBox="0 0 47 49.02">
  <defs>
    <style>
      .cls-1 {
        fill: #fff;
        stroke-width: 0px;
      }
    </style>
  </defs>
  <g id="Layer_1-2" data-name="Layer 1">
    <path class="cls-1" d="m33.02,26.28c0,6.83-5.56,12.38-12.39,12.38s-12.38-5.55-12.38-12.38,5.55-12.38,12.38-12.38c3.42,0,6.5,1.39,8.75,3.62-.41.22-9.85,5.08-11.14,6.37-1.32,1.32-1.32,3.46,0,4.78,1.32,1.32,3.47,1.32,4.78,0,1.29-1.29,6.15-10.73,6.37-11.14,2.24,2.24,3.63,5.33,3.63,8.75Zm-3.64-8.76h0,0Zm11.89,8.76c0,11.38-9.26,20.63-20.64,20.63S0,37.66,0,26.28C0,16.09,7.42,7.61,17.14,5.95v-3.42h-1.43c-.3,0-.55-.24-.55-.54V.54c0-.29.25-.54.55-.54h9.85c.3,0,.54.25.54.54v1.45c0,.3-.24.54-.54.54h-1.44v3.42c9.73,1.66,17.15,10.14,17.15,20.33Zm-4.5,0c0-8.9-7.24-16.13-16.14-16.13S4.5,17.38,4.5,26.28s7.24,16.13,16.13,16.13,16.14-7.24,16.14-16.13Zm10.23,14.74v-1h-4.99v1h1.26v7h-1.26v1h4.99v-1h-1.26v-7h1.26Z"/>
  </g>
</svg>