<?xml version="1.0" encoding="UTF-8"?>
<svg id="Layer_2" data-name="Layer 2" xmlns="http://www.w3.org/2000/svg" viewBox="0 0 52.32 55.12">
  <defs>
    <style>
      .cls-1 {
        fill: #fbfbfb;
        stroke-width: 0px;
      }
    </style>
  </defs>
  <g id="Layer_1-2" data-name="Layer 1">
    <path class="cls-1" d="m19.78,35.39l6.38,5.02,7.36-5.8v-10.76l-13.74,11.54Zm-.99-13.27v10.17l12.12-10.17h-12.12Zm27.3,23.04c.03.1.01.2-.03.28-.05.09-.13.16-.23.18l-.25.07-.25-.14h0l.24.14.07.26c.03.1.01.2-.03.28-.05.09-.13.16-.23.18-.19.05-.4-.07-.46-.27l-.13-.48-1.08-.63.33,1.23c.03.1.01.2-.03.28-.05.09-.13.16-.23.18-.19.05-.4-.07-.46-.27l-.52-1.95-.62-.36-2.1,1.21v.73l1.42,1.42c.15.15.15.39,0,.53-.07.08-.17.11-.26.11-.1,0-.2-.03-.27-.11l-.89-.89v1.25l.33.33c.15.15.15.39,0,.53-.07.08-.17.11-.26.11-.1,0-.2-.03-.27-.11l-.18-.18h0s-.19.19-.19.19c-.07.08-.17.11-.26.11-.1,0-.2-.03-.27-.11-.14-.14-.14-.38,0-.53l.35-.35v-1.25l-.9.9c-.07.08-.17.11-.26.11-.1,0-.2-.03-.27-.11-.14-.14-.14-.38,0-.53l1.43-1.43v-.72l-2.11-1.22-.63.36-.52,1.94c-.05.2-.26.32-.46.27-.1-.02-.18-.09-.23-.17-.05-.09-.07-.19-.04-.29l.33-1.22-1.09.63-.12.45c-.05.2-.26.32-.46.27-.1-.02-.18-.09-.23-.17-.05-.09-.07-.19-.04-.29l.07-.25.25-.14h0l-.24.14-.26-.07c-.1-.02-.18-.09-.23-.17-.05-.09-.07-.19-.04-.29.05-.19.26-.31.46-.27l.48.13,1.08-.63-1.23-.33c-.1-.02-.18-.09-.23-.17-.05-.09-.07-.19-.04-.29.05-.19.26-.31.46-.27l1.95.52.61-.35v-2.44l-.62-.36-1.94.52c-.2.05-.41-.07-.46-.27-.03-.1-.01-.2.04-.28.05-.09.13-.16.23-.18l1.22-.33-1.09-.63-.45.12c-.2.05-.41-.07-.46-.27-.03-.1-.01-.2.03-.28.05-.09.13-.16.23-.18l.25-.07.25.14h0l-.24-.14-.07-.26c-.03-.1-.01-.2.03-.28.05-.09.13-.16.23-.18.19-.05.4.07.46.27l.13.48,1.08.63-.33-1.23c-.03-.1-.01-.2.03-.28.05-.09.13-.16.23-.18.19-.05.4.07.46.27l.52,1.95.61.35,2.12-1.22v-.72l-1.42-1.42c-.15-.15-.15-.39,0-.53.07-.08.17-.11.26-.11.1,0,.2.03.27.11l.89.89v-1.26l-.33-.33c-.15-.15-.15-.39,0-.53.07-.08.17-.11.26-.11.1,0,.2.03.27.11l.18.18h0s.19-.19.19-.19c.07-.08.17-.11.26-.11.1,0,.2.03.27.11.14.14.14.38,0,.53l-.35.35v1.25l.9-.9c.07-.08.17-.11.26-.11.1,0,.2.03.27.11.14.14.14.38,0,.53l-1.43,1.43v.71l2.11,1.22.62-.36.52-1.94c.05-.2.26-.32.46-.27.1.02.18.09.23.17.05.09.07.19.04.29l-.33,1.22,1.09-.63.12-.45c.05-.2.26-.32.46-.27.1.02.18.09.23.17.05.09.07.19.04.29l-.07.25h0s.26.07.26.07c.1.02.18.09.23.17.05.09.07.19.04.29-.05.19-.26.31-.46.27l-.48-.13-1.08.63,1.23.33c.1.02.18.09.23.17.05.09.07.19.04.29-.05.19-.26.31-.46.27l-1.95-.52-.62.36v2.43l.63.36,1.94-.52c.2-.05.41.07.46.27.03.1.01.2-.03.28-.05.09-.13.16-.23.18l-1.22.33,1.09.63.45-.12c.2-.05.41.07.46.27Zm-7.69-24.58l-.63-.64c-.4-.39-.62-.93-.62-1.49v-1.87l-1.25,1.24c-.4.4-.62.94-.62,1.5s.22,1.1.62,1.5l.63.63c.4.4.62.94.62,1.5v1.87l1.25-1.25c.4-.39.62-.93.62-1.5s-.22-1.1-.62-1.49Zm6.01-4.25l-1.26-1.27c-.79-.79-1.24-1.87-1.24-2.99v-3.75l-2.5,2.5c-.79.79-1.24,1.87-1.24,3s.45,2.2,1.24,2.99l1.26,1.27c.79.79,1.24,1.87,1.24,2.99v3.75l2.5-2.5c.79-.79,1.24-1.87,1.24-3s-.44-2.2-1.24-2.99ZM14.84,49.57v-6.32h-.26l-6.31,6.32v-6.32h-3.17l6.32-6.32v6.32h.26l6.31-6.32v6.32h3.17l-6.32,6.32Zm4.72-32.48l-5.77,5.77-6.57.14,8.39-8.39-.85-.85-2.89,2.89h-1.65v1.64s-4.73,4.74-4.73,4.74l.17-8.29,5.77-5.77,8.29-.17-.17,8.29ZM45.52,2.8h-9.16v3h9.16c2.1,0,3.8,1.7,3.8,3.79v38.73c0,2.09-1.7,3.8-3.8,3.8H6.8c-2.1,0-3.8-1.71-3.8-3.8V9.59c0-2.09,1.7-3.79,3.8-3.79h12.61v-3H6.8C3.05,2.8,0,5.85,0,9.59v38.73c0,3.75,3.05,6.8,6.8,6.8h38.72c3.75,0,6.8-3.05,6.8-6.8V9.59c0-3.74-3.05-6.79-6.8-6.79Zm-12.73-.41c-.15-.19-.31-.38-.49-.56s-.37-.35-.57-.5c-2.45-1.93-6.01-1.76-8.26.5-2.25,2.25-2.42,5.81-.5,8.26.15.19.32.38.5.56.18.18.37.35.57.5,1.13.89,2.49,1.32,3.84,1.32,1.6,0,3.2-.6,4.42-1.82,2.25-2.25,2.42-5.81.49-8.26Zm-8.26.5c.93-.93,2.14-1.39,3.35-1.39.98,0,1.96.3,2.78.9l-6.61,6.61c-1.34-1.85-1.18-4.46.48-6.12Zm6.71,6.7c-1.67,1.67-4.28,1.83-6.13.49l6.61-6.62c1.34,1.84,1.18,4.46-.48,6.13Z"/>
  </g>
</svg>