<?xml version="1.0" encoding="UTF-8"?>
<svg id="Layer_2" data-name="Layer 2" xmlns="http://www.w3.org/2000/svg" viewBox="0 0 52.32 53.88">
  <defs>
    <style>
      .cls-1 {
        fill: #fff;
        stroke-width: 0px;
      }
    </style>
  </defs>
  <g id="Layer_1-2" data-name="Layer 1">
    <path class="cls-1" d="m28.39,17.34c0,1.45-1.5,3.01-2.23,3.75-.74-.74-2.23-2.29-2.23-3.75s2.11-6.72,2.23-7.04c.13.32,2.23,5.56,2.23,7.04Zm17.12-7.06c-.43.27-5.74,3.59-9.42,6.22-.46-.14-.95-.22-1.45-.22-2.69,0-4.87,2.18-4.87,4.87,0,.77.18,1.51.5,2.15-.57,1.34-.97,2.61-1.19,3.42.8-.22,2.06-.62,3.42-1.2.65.33,1.38.51,2.15.51,2.7,0,4.88-2.18,4.88-4.88,0-.51-.08-1-.22-1.45,2.62-3.68,5.94-8.99,6.21-9.42ZM6.81,29.64c.32.13,5.56,2.23,7.04,2.23,1.45,0,3.01-1.5,3.75-2.23-.74-.74-2.29-2.23-3.75-2.23s-6.72,2.11-7.04,2.23Zm-.02-19.36c.27.43,3.59,5.74,6.22,9.42-.14.46-.22.95-.22,1.45,0,2.69,2.18,4.87,4.87,4.87.77,0,1.51-.18,2.15-.5,1.34.57,2.61.97,3.42,1.19-.22-.8-.62-2.06-1.2-3.42.33-.65.51-1.38.51-2.15,0-2.7-2.18-4.88-4.88-4.88-.51,0-1,.08-1.45.22-3.68-2.62-8.99-5.94-9.42-6.21Zm19.36,38.7c.13-.32,2.23-5.56,2.23-7.04s-1.5-3.01-2.23-3.75c-.74.74-2.23,2.29-2.23,3.75s2.11,6.72,2.23,7.04Zm-19.36.02c.43-.27,5.74-3.59,9.42-6.22.46.14.95.22,1.45.22,2.69,0,4.87-2.18,4.87-4.87,0-.77-.18-1.51-.5-2.15.57-1.34.97-2.61,1.19-3.42-.8.22-2.06.62-3.42,1.2-.65-.33-1.38-.51-2.15-.51-2.7,0-4.88,2.18-4.88,4.88,0,.51.08,1,.22,1.45-2.62,3.68-5.94,8.99-6.21,9.42Zm38.7-19.36c-.32-.13-5.56-2.23-7.04-2.23s-3.01,1.5-3.75,2.23c.74.74,2.29,2.23,3.75,2.23s6.72-2.11,7.04-2.23Zm.02,19.36c-.27-.43-3.59-5.74-6.22-9.42.14-.46.22-.95.22-1.45,0-2.69-2.18-4.87-4.87-4.87-.77,0-1.51.18-2.15.5-1.34-.57-2.61-.97-3.42-1.19.22.8.62,2.06,1.2,3.42-.33.65-.51,1.38-.51,2.15,0,2.7,2.18,4.88,4.88,4.88.51,0,1-.08,1.45-.22,3.68,2.62,8.99,5.94,9.42,6.21Zm-19.36-23.48c-2.28,0-4.13,1.85-4.13,4.13s1.85,4.13,4.13,4.13,4.13-1.85,4.13-4.13c0-2.28-1.85-4.13-4.13-4.13ZM45.52,1.56h-4.46v3h4.46c2.09,0,3.8,1.7,3.8,3.8v38.72c0,2.1-1.71,3.8-3.8,3.8H6.79c-2.09,0-3.79-1.7-3.79-3.8V8.36c0-2.1,1.7-3.8,3.79-3.8h4.46V1.56h-4.46C3.05,1.56,0,4.61,0,8.36v38.72c0,3.75,3.05,6.8,6.79,6.8h38.73c3.75,0,6.8-3.05,6.8-6.8V8.36c0-3.75-3.05-6.8-6.8-6.8Zm-25.83,11.25l-6.4-6.4L19.69,0l6.4,6.4-6.4,6.4Zm-3.58-6.4l3.58,3.58,3.58-3.58-3.58-3.58-3.58,3.58ZM29.1,1.56v6.4l7.62-6.4h-7.62Zm.83,7.65l3.54,2.78,4.38-3.43V2.58l-7.92,6.63Z"/>
  </g>
</svg>