<?xml version="1.0" encoding="UTF-8"?>
<svg id="Layer_2" data-name="Layer 2" xmlns="http://www.w3.org/2000/svg" viewBox="0 0 49.61 52.07">
  <defs>
    <style>
      .cls-1 {
        fill: #fbfbfb;
        stroke-width: 0px;
      }
    </style>
  </defs>
  <g id="Layer_1-2" data-name="Layer 1">
    <path class="cls-1" d="m39.83,23.21c0,3.57-2.89,6.47-6.47,6.47s-6.46-2.9-6.46-6.47c0-2.03,2.09-5.86,3.89-8.78,2.09.28,4.07.71,5.9,1.26h.01c1.57,2.68,3.13,5.77,3.13,7.52ZM20.43,0s-4.59,6.46-4.59,8.99c0,.11,0,.22.01.33,2.73-.55,5.69-.85,8.79-.85h.32c-.5-2.79-4.53-8.47-4.53-8.47Zm-4.59,23.92s-4.07,5.73-4.54,8.51c2.66.91,5.67,1.56,8.91,1.87.15-.44.22-.91.22-1.39,0-2.53-4.59-8.99-4.59-8.99Zm32.87.35c-2.4,5.85-12.26,10.24-24.07,10.24-1.51,0-3-.07-4.43-.21-.58,1.86-2.31,3.2-4.37,3.2-2.53,0-4.58-2.05-4.58-4.59,0-.15.02-.3.04-.48-5.39-1.83-9.33-4.75-10.73-8.16-.38.89-.57,1.82-.57,2.77,0,7.19,11.03,13.02,24.64,13.02s24.64-5.83,24.64-13.02c0-.95-.19-1.88-.57-2.77Zm-23.75-15.79c.03.19.05.36.05.51,0,2.53-2.05,4.58-4.58,4.58s-4.41-1.87-4.58-4.25C6.58,11.2,0,15.94,0,21.49c0,.95.19,1.88.57,2.78,2.4-5.86,12.26-10.25,24.07-10.25,2.12,0,4.18.14,6.15.41,1.37-2.21,2.57-3.9,2.57-3.9,0,0,1.68,2.37,3.33,5.16h.01c6.04,1.79,10.5,4.89,12.01,8.58.38-.9.57-1.83.57-2.78,0-7.13-10.86-12.93-24.32-13.01Zm24.65,35.59v-1h-7.96v1h.98v7h-.98v1h7.96v-1h-.98v-7h.98Zm-2.98,7h-2v-7h2v7Z"/>
  </g>
</svg>