<?xml version="1.0" encoding="UTF-8"?>
<svg id="Layer_2" data-name="Layer 2" xmlns="http://www.w3.org/2000/svg" viewBox="0 0 49.74 51.04">
  <defs>
    <style>
      .cls-1 {
        fill: #fff;
        stroke-width: 0px;
      }
    </style>
  </defs>
  <g id="Layer_1-2" data-name="Layer 1">
    <path class="cls-1" d="m49.74,42.04v-1h-12.06v1h1.08v8h-1.08v1h12.06v-1h-1.08v-8h1.08Zm-9.02,8v-8h2v8h-2Zm5.97,0h-2v-8h2v8ZM8.58,20.84c1.39,0,2.85,1.11,3.84,2.02v1.39c-1,.91-2.46,2.03-3.84,2.03C6.79,26.28.41,23.71.02,23.56c.39-.16,6.77-2.72,8.57-2.72Zm14.28-8.43c-.91-1-2.02-2.46-2.02-3.83C20.84,6.78,23.4.41,23.56,0c.15.4,2.72,6.77,2.72,8.58,0,1.38-1.11,2.84-2.02,3.83h-1.4Zm5.43,0h-.29c.4-2.89,2.88-5.12,5.87-5.12.62,0,1.22.09,1.78.26,4.46-3.18,10.88-7.2,11.45-7.56-.35.58-4.38,6.99-7.55,11.46.18.55.27,1.15.27,1.77,0,3-2.22,5.48-5.12,5.87v-.28h-6.4v-6.4Zm10.23,8.43c1.8,0,8.18,2.56,8.58,2.72-.39.15-6.77,2.72-8.58,2.72-1.38,0-2.84-1.12-3.83-2.02v-1.4c1-.91,2.46-2.02,3.83-2.02ZM7.57,11.47C4.37,6.99.33.53,0,0c.52.33,6.99,4.38,11.46,7.56.56-.17,1.15-.26,1.77-.26,3,0,5.48,2.22,5.87,5.12h-.28v6.4h-6.39v.29c-2.9-.39-5.12-2.86-5.12-5.87,0-.61.09-1.22.27-1.77Zm11.24,23.22h.29c-.39,2.9-2.86,5.13-5.87,5.13-.61,0-1.21-.09-1.77-.26C7.01,42.73.59,46.75.02,47.11c.35-.58,4.38-6.99,7.55-11.45-.18-.56-.27-1.15-.27-1.78,0-3.01,2.22-5.49,5.12-5.88v.29h6.39v6.39Zm14.48-7.79h-6.4v6.4h-6.69v-6.4h-6.4v-6.69h6.4v-6.4h6.69v6.4h6.4v6.69Zm3.01,13.11c-.22-.15-.44-.31-.65-.46-.56.17-1.15.26-1.78.26-2.99,0-5.48-2.22-5.88-5.13h.29v-6.39h6.4v-.29c2.89.4,5.12,2.87,5.12,5.87,0,.61-.09,1.22-.27,1.77.96,1.35,2,2.87,2.99,4.36h-6.23Zm-12.05-5.31c.91,1,2.02,2.46,2.02,3.83,0,1.8-2.56,8.18-2.72,8.58-.15-.39-2.72-6.77-2.72-8.58,0-1.38,1.12-2.84,2.02-3.83h1.4Z"/>
  </g>
</svg>