<?xml version="1.0" encoding="UTF-8"?>
<svg id="Layer_2" data-name="Layer 2" xmlns="http://www.w3.org/2000/svg" viewBox="0 0 49.08 49.08">
  <defs>
    <style>
      .cls-1 {
        fill: #fff;
        stroke-width: 0px;
      }
    </style>
  </defs>
  <g id="Layer_1-2" data-name="Layer 1">
    <path class="cls-1" d="m47.82,41.08v7h1.26v1h-4.99v-1h1.26v-7h-1.26v-1h4.99v1h-1.26ZM7.3,13.24c0,3,2.22,5.48,5.12,5.87v-.29h6.39v-6.4h.28c-.39-2.89-2.86-5.12-5.87-5.12-.61,0-1.21.09-1.77.26C6.99,4.38.52.33,0,0c.33.53,4.37,6.99,7.57,11.47-.18.55-.27,1.15-.27,1.77Zm16.96-.82c.91-.99,2.02-2.46,2.02-3.83C26.28,6.78,23.71.41,23.56,0c-.16.4-2.72,6.77-2.72,8.58,0,1.38,1.11,2.84,2.02,3.83h1.4ZM.02,23.56c.39.15,6.77,2.72,8.57,2.72,1.39,0,2.85-1.12,3.84-2.03v-1.39c-1-.91-2.46-2.02-3.84-2.02C6.79,20.84.41,23.4.02,23.56Zm34.67-.7v1.4c1,.9,2.46,2.02,3.83,2.02,1.8,0,8.18-2.57,8.58-2.72-.39-.16-6.77-2.72-8.58-2.72-1.38,0-2.84,1.11-3.83,2.02Zm-6.4-4.05h6.4v.28c2.9-.39,5.12-2.86,5.12-5.87,0-.61-.09-1.22-.27-1.77,3.17-4.46,7.2-10.88,7.55-11.46-.57.36-6.99,4.38-11.45,7.56-.56-.17-1.15-.26-1.78-.26-2.99,0-5.47,2.22-5.87,5.12h.29v6.4Zm15.23,22.69c-1.27-1.93-2.69-4.06-3.98-5.86.18-.55.27-1.15.27-1.77,0-3-2.23-5.47-5.12-5.87v.29h-6.4v6.39h-.29c.4,2.9,2.88,5.12,5.88,5.12.62,0,1.22-.09,1.78-.26,2.46,1.75,5.52,3.76,7.87,5.27v-3.31Zm-10.23-21.3h-6.4v-6.4h-6.69v6.4h-6.4v6.69h6.4v6.4h6.69v-6.4h6.4v-6.69Zm-14.48,8.09h-6.39v-.29c-2.9.39-5.12,2.86-5.12,5.88,0,.62.09,1.22.27,1.78C4.4,40.12.37,46.53.02,47.11c.57-.36,6.99-4.38,11.45-7.56.56.17,1.15.26,1.77.26,3,0,5.48-2.22,5.87-5.12h-.29v-6.39Zm4.05,6.4c-.9,1-2.02,2.46-2.02,3.83,0,1.8,2.57,8.19,2.72,8.58.16-.39,2.72-6.77,2.72-8.58,0-1.38-1.11-2.84-2.02-3.83h-1.4Z"/>
  </g>
</svg>