<?xml version="1.0" encoding="UTF-8"?>
<svg id="Layer_2" data-name="Layer 2" xmlns="http://www.w3.org/2000/svg" viewBox="0 0 43.11 38.73">
  <defs>
    <style>
      .cls-1 {
        fill: #fff;
      }

      .cls-2 {
        fill: #fbfbfb;
      }
    </style>
  </defs>
  <path class="cls-1" d="M21.61,7.07c0,1.45-1.5,3.01-2.23,3.75-.74-.74-2.23-2.29-2.23-3.75S19.26.35,19.38.03c.13.32,2.23,5.56,2.23,7.04Z"/>
  <path class="cls-1" d="M38.73,0c-.43.27-5.74,3.59-9.42,6.22-.46-.14-.95-.22-1.45-.22-2.69,0-4.87,2.18-4.87,4.87,0,.77.18,1.51.5,2.15-.57,1.34-.97,2.61-1.19,3.42.8-.22,2.06-.62,3.42-1.2.65.33,1.38.51,2.15.51,2.7,0,4.88-2.18,4.88-4.88,0-.51-.08-1-.22-1.45C35.15,5.75,38.47.44,38.74,0h-.01Z"/>
  <path class="cls-1" d="M.03,19.37c.32.13,5.56,2.23,7.04,2.23s3.01-1.5,3.75-2.23c-.74-.74-2.29-2.23-3.75-2.23S.35,19.25.03,19.37Z"/>
  <path class="cls-1" d="M0,0c.27.43,3.59,5.74,6.22,9.42-.14.46-.22.95-.22,1.45,0,2.69,2.18,4.87,4.87,4.87.77,0,1.51-.18,2.15-.5,1.34.57,2.61.97,3.42,1.19-.22-.8-.62-2.06-1.2-3.42.33-.65.51-1.38.51-2.15,0-2.7-2.18-4.88-4.88-4.88-.51,0-1,.08-1.45.22C5.75,3.59.44.27,0,0h0Z"/>
  <path class="cls-1" d="M19.37,38.71c.13-.32,2.23-5.56,2.23-7.04s-1.5-3.01-2.23-3.75c-.74.74-2.23,2.29-2.23,3.75s2.11,6.72,2.23,7.04Z"/>
  <path class="cls-1" d="M0,38.73c.43-.27,5.74-3.59,9.42-6.22.46.14.95.22,1.45.22,2.69,0,4.87-2.18,4.87-4.87,0-.77-.18-1.51-.5-2.15.57-1.34.97-2.61,1.19-3.42-.8.22-2.06.62-3.42,1.2-.65-.33-1.38-.51-2.15-.51-2.7,0-4.88,2.18-4.88,4.88,0,.51.08,1,.22,1.45-2.62,3.68-5.94,8.99-6.21,9.42h0Z"/>
  <circle class="cls-1" cx="19.37" cy="19.38" r="4.13"/>
  <path class="cls-1" d="M25.31,23.33c-1.19-.48-2.29-.83-3.02-1.03.2.72.55,1.81,1.04,3.01l1.98-1.98Z"/>
  <path class="cls-1" d="M31.95,17.16c-.1-.01-.2-.02-.28-.02-1.48,0-3.01,1.5-3.75,2.23.24.24.57.56.95.88l3.09-3.09Z"/>
  <polygon class="cls-2" points="43.11 24.6 36.58 24.6 39.85 17.3 43.11 24.6 43.11 24.6"/>
  <g>
    <polygon class="cls-2" points="40.88 24.6 39.85 22.3 38.82 24.6 40.88 24.6"/>
    <polygon class="cls-2" points="40.98 24.83 38.72 24.83 36.58 29.6 43.11 29.6 43.11 29.6 40.98 24.83"/>
  </g>
  <path class="cls-1" d="M34.59,31.81h0v-2.98l2.72-2.72h-2.69l2.28-5.09-3.78-3.78-10.29,10.3v2.05l8.52,8.52h0s0,0,0,0h0s0,0,0,0v.16h-6.84l-.37.34h13.25c.83,0,1.49-.67,1.49-1.49v-1l-4.29-4.31Z"/>
</svg>