<?xml version="1.0" encoding="UTF-8"?>
<svg id="Layer_2" data-name="Layer 2" xmlns="http://www.w3.org/2000/svg" viewBox="0 0 49.43 51.62">
  <defs>
    <style>
      .cls-1 {
        fill: #fff;
        stroke-width: 0px;
      }
    </style>
  </defs>
  <g id="Layer_1-2" data-name="Layer 1">
    <path class="cls-1" d="m48.17,43.33v7h1.26v1h-4.99v-1h1.26v-7h-1.26v-1h4.99v1h-1.26Zm-24.25,8.29l6.33-38.36h-12.66l6.33,38.36Zm8.04-33.17h8.44l-4.22,25.57-4.22-25.57ZM23.92,0l-6.79,11.76h2.31l4.48-7.76,4.48,7.76h2.31L23.92,0Zm16.36,28.34l-.51,3.12,4.59,7.96h-5.91l-.33,2h9.71l-7.55-13.08Zm-19.89,11.08h-6.45l-.33,2h7.11l-.33-2Zm-16.92,0l4.6-7.96-.52-3.12L0,41.42h9.71l-.33-2H3.47Zm30.42,0h-6.44l-.33,2h7.1l-.33-2Zm-2.17-25.91l-.51,3.12.18.32h2.31l-1.98-3.44Zm-15.61.01l-1.98,3.43h2.31l.18-.31-.51-3.12Zm-4.45,30.5l-4.22-25.57h8.44s-4.22,25.57-4.22,25.57Z"/>
  </g>
</svg>