<?xml version="1.0" encoding="UTF-8"?>
<svg id="Layer_2" data-name="Layer 2" xmlns="http://www.w3.org/2000/svg" viewBox="0 0 49.41 51.83">
  <defs>
    <style>
      .cls-1 {
        fill: #fff;
        stroke-width: 0px;
      }
    </style>
  </defs>
  <g id="Layer_1-2" data-name="Layer 1">
    <path class="cls-1" d="m49.41,43.83v-1h-7.96v1h.98v7h-.98v1h7.96v-1h-.98v-7h.98Zm-2.98,7h-2v-7h2v7ZM17.59,13.26h12.66l-6.33,38.36-6.33-38.36Zm18.58,30.77l4.22-25.57h-8.44l4.22,25.57Zm-5.46-32.26h-2.31l-4.48-7.76-4.48,7.76h-2.31L23.92,0l6.79,11.76Zm17.12,29.66h-9.71l.33-2h5.91l-4.59-7.96.51-3.12,7.55,13.08Zm-27.11,0h-7.11l.33-2h6.45l.33,2Zm-11.34-2l.33,2H0l7.55-13.08.52,3.12-4.6,7.96h5.91Zm24.84,2h-7.1l.33-2h6.44l.33,2Zm-.52-24.47h-2.31l-.18-.32.51-3.12,1.98,3.44Zm-17.08-.31l-.18.31h-2.31l1.98-3.43.51,3.12Zm-.74,1.81H7.44s4.22,25.57,4.22,25.57l4.22-25.57Z"/>
  </g>
</svg>