<?xml version="1.0" encoding="UTF-8"?>
<svg id="Layer_2" data-name="Layer 2" xmlns="http://www.w3.org/2000/svg" viewBox="0 0 47.28 50.59">
  <defs>
    <style>
      .cls-1 {
        fill: #fff;
        stroke-width: 0px;
      }
    </style>
  </defs>
  <g id="Layer_1-2" data-name="Layer 1">
    <path class="cls-1" d="m21.35.02c-.12.29-1.71,4.26-2.26,6.57h4.53c-.55-2.31-2.15-6.28-2.27-6.57Zm4.24,15.08c-.48,1.19-.82,2.28-1.02,3.03,0,.01.01.01.01.01.89-.25,2.28-.69,3.76-1.33.72.37,1.52.56,2.37.56,1.81,0,3.42-.89,4.39-2.27h-9.51Zm7.1-8.51h5.75c2.13-3.2,4.05-6.25,4.26-6.59-.47.29-5.99,3.74-10.01,6.59ZM7.79,18.89c-1.63,0-7.41,2.32-7.77,2.46.36.14,6.14,2.46,7.77,2.46s3.32-1.65,4.13-2.46c-.81-.81-2.53-2.46-4.13-2.46ZM0,.01c.21.34,2.12,3.39,4.25,6.58h5.76C5.98,3.75.47.3,0,.01Zm17.11,15.09H7.61c.97,1.37,2.57,2.27,4.38,2.27.85,0,1.66-.19,2.37-.55,1.47.64,2.86,1.06,3.76,1.32h.02v-.02c-.21-.74-.55-1.82-1.03-3.02Zm4.24,15.69c-.81.81-2.46,2.52-2.46,4.13s2.32,7.41,2.46,7.76c.14-.35,2.47-6.13,2.47-7.76s-1.65-3.32-2.47-4.13Zm-3.21-6.21s0-.01,0-.01c-.89.24-2.28.68-3.76,1.32-.72-.36-1.52-.56-2.37-.56-2.97,0-5.38,2.41-5.38,5.38,0,.56.09,1.1.25,1.61C3.97,36.37.31,42.23.01,42.7c.48-.3,6.33-3.96,10.39-6.86.5.16,1.04.24,1.6.24,2.97,0,5.37-2.4,5.37-5.37,0-.85-.19-1.66-.55-2.36.64-1.48,1.07-2.88,1.32-3.77Zm16.78-5.69c-1.6,0-3.32,1.65-4.13,2.46.81.81,2.53,2.46,4.13,2.46s7.41-2.32,7.77-2.46c-.36-.14-6.14-2.46-7.77-2.46Zm.92,13.42c.16-.51.25-1.05.25-1.61,0-2.96-2.41-5.37-5.38-5.37-.84,0-1.65.2-2.36.55-1.49-.63-2.88-1.07-3.78-1.31.24.88.68,2.27,1.32,3.77-.36.71-.55,1.52-.55,2.36,0,2.98,2.4,5.38,5.37,5.38.56,0,1.11-.08,1.61-.24,1.95,1.39,4.32,2.96,6.3,4.25h2.43c-1.4-2.18-3.45-5.32-5.21-7.78Zm-11.26-14.17s-.01,0-.01-.01c-.82-.82-1.96-1.33-3.22-1.33s-2.38.51-3.21,1.32c0,0,0,.02-.02.02-.81.83-1.32,1.96-1.32,3.21s.51,2.39,1.33,3.22t0,.01c.83.81,1.96,1.32,3.21,1.32s2.4-.51,3.22-1.33c.82-.83,1.33-1.97,1.33-3.22s-.51-2.38-1.32-3.21Zm15.59-9.3v4.01H1.14v-4.01h39.03m.75-.75H.39v5.51h40.53v-5.51h0ZM1.89,12.1v-2.51h9.19v2.51H1.89Zm45.4,30.49v-1h-7.96v1h.98v7h-.98v1h7.96v-1h-.98v-7h.98Zm-2.98,7h-2v-7h2v7Z"/>
  </g>
</svg>