<?xml version="1.0" encoding="UTF-8"?>
<svg id="Layer_2" data-name="Layer 2" xmlns="http://www.w3.org/2000/svg" viewBox="0 0 52.86 52.32">
  <defs>
    <style>
      .cls-1 {
        fill: #fff;
        stroke-width: 0px;
      }
    </style>
  </defs>
  <g id="Layer_1-2" data-name="Layer 1">
    <path class="cls-1" d="m51.6,23.89v7h1.26v1h-4.99v-1h1.26v-7h-1.26v-1h4.99v1h-1.26ZM15.37,43.24v2.15l-1.24-.45-1.24.45v-2.8l.26.07,2.22.58Zm-2.22-.58l-.26.06-6.69,1.61v-11.99l1.07-.26v9.04l5.62,1.47.26.07Zm9.25-14.35v11.98l-7.03,1.84-7.02-1.84v-11.98l7.02,1.83,7.03-1.83Zm-3.84,7.21l-3.19-3.18-3.18,3.19,3.18,3.18,2.63-2.63.56-.56Zm5.98-3.18v11.99l-6.94-1.67,5.88-1.54v-9.04l1.06.26ZM14.15,7.66v3.82h-6.9v-3.82h6.9Zm7.99,0v7.64h-2.9v-7.64h2.9Zm0,8.73v4.06l-2.83,2.84h-9.23l-2.83-2.84v-7.88h6.9v2.73h-3.87v1.09h11.86Zm-3.99-8.73v7.64h-2.93v-7.64h2.93Zm22.47,9.53l2.02,2.02v2.85l-.11.11h-3.11l-6.78-6.78v-.74s6.99-6.99,6.99-6.99l4.1,4.1-3.11,3.11v2.32Zm-4.03,4.97h-8.74v-2.38h6.35l2.39,2.38Zm-.65-13.64l-2.38,2.38h-5.71v-2.38h8.09Zm-5.03,5.58v2.39h-3.06v-2.39h3.06Zm3.55,18.46v1.37h2.44v5.29h-4.79v1.37h4.79v5.57h-2.82l-4.7-4.7v-7.82l4.7-4.7h2.82v3.62h-2.44Zm8.18-2.08v4.03h-4.37v-5.57h2.83l1.54,1.54Zm3.16,5.4v5.58l-4.7,4.7h-2.83v-3.62h2.44v-1.37h-2.44v-5.29h7.53Zm3.52-16.99V6.8c0-2.1-1.71-3.8-3.8-3.8H6.79c-2.09,0-3.79,1.7-3.79,3.8v38.72c0,2.1,1.7,3.8,3.79,3.8h38.73c2.09,0,3.8-1.7,3.8-3.8v-9.64h3v9.64c0,3.75-3.05,6.8-6.8,6.8H6.79c-3.74,0-6.79-3.05-6.79-6.8V6.8C0,3.05,3.05,0,6.79,0h38.73c3.75,0,6.8,3.05,6.8,6.8v12.09h-3Z"/>
  </g>
</svg>