<?xml version="1.0" encoding="UTF-8"?>
<svg id="Layer_2" data-name="Layer 2" xmlns="http://www.w3.org/2000/svg" viewBox="0 0 48.92 48.52">
  <defs>
    <style>
      .cls-1 {
        fill: #fbfbfb;
        stroke-width: 0px;
      }
    </style>
  </defs>
  <g id="Layer_1-2" data-name="Layer 1">
    <path class="cls-1" d="m21.63,43.28c-1.88,0-3.75-.24-5.55-.72l.51-1.93c2.74.73,5.7.85,8.49.35l.35,1.97c-1.25.22-2.53.33-3.81.34Zm10.85-2.93l-1.01-1.73c2.46-1.43,4.63-3.42,6.26-5.75l1.64,1.15c-1.8,2.57-4.18,4.76-6.89,6.33Zm6.14-28.54c-1.43-2.47-3.41-4.64-5.74-6.27l1.15-1.64c2.56,1.8,4.75,4.18,6.32,6.9l-1.73,1Zm-16.99,24.97c-8.35,0-15.14-6.79-15.14-15.14s6.79-15.14,15.14-15.14,15.14,6.79,15.14,15.14-6.79,15.14-15.14,15.14Zm0-25.28c-5.59,0-10.14,4.55-10.14,10.14s4.55,10.14,10.14,10.14,10.14-4.55,10.14-10.14-4.55-10.14-10.14-10.14Zm0-11.5C9.7,0,0,9.71,0,21.64c0,8.02,4.38,15.03,10.88,18.76l.85-1.81c-5.82-3.41-9.73-9.73-9.73-16.95C2,10.81,10.81,2,21.63,2c2.33,0,4.56.41,6.63,1.15l.85-1.82c-2.33-.86-4.85-1.33-7.48-1.33Zm16.46,19.25h10.83l-5.42,9.38-5.42-9.38Zm9.96,21.28v-1h-4.99v1h1.26v7h-1.26v1h4.99v-1h-1.26v-7h1.26Z"/>
  </g>
</svg>