<?xml version="1.0" encoding="UTF-8"?>
<svg id="Layer_2" data-name="Layer 2" xmlns="http://www.w3.org/2000/svg" viewBox="0 0 45.82 47.78">
  <defs>
    <style>
      .cls-1 {
        fill: #fff;
        stroke-width: 0px;
      }
    </style>
  </defs>
  <g id="Layer_1-2" data-name="Layer 1">
    <path class="cls-1" d="m42.09,47.78h-1.26v-1h1.26v-7h-1.26v-1h4.99v1h-1.26v7h1.26v1h-3.73Zm-1.94-22.57c0,11.07-9.01,20.07-20.08,20.07S0,36.28,0,25.21c0-6.79,3.39-12.81,8.56-16.44v3.84c-3.42,3.12-5.56,7.62-5.56,12.6,0,9.41,7.66,17.07,17.07,17.07s17.08-7.66,17.08-17.07c0-4.99-2.15-9.49-5.57-12.61v-3.83c5.18,3.63,8.57,9.65,8.57,16.44Zm-20.08,0l-10.39,8.72c2.49,2.96,6.23,4.85,10.39,4.85s7.91-1.89,10.4-4.85l-10.4-8.72Zm8.36-11.56l-.64.17-1.53-.88,1.71-.46c.15-.03.25-.13.32-.25.06-.11.1-.25.05-.39-.07-.28-.36-.45-.65-.37l-2.73.73-.88-.51v-3.42l.87-.5,2.74.74c.28.07.57-.1.65-.37.05-.14.01-.28-.06-.41-.06-.11-.17-.21-.32-.24l-1.73-.46,1.52-.88.67.18c.28.07.57-.1.65-.37.05-.14.01-.28-.06-.41-.06-.11-.17-.21-.32-.24l-.36-.1h0s.09-.35.09-.35c.05-.14.01-.28-.06-.41-.06-.11-.17-.21-.32-.24-.28-.08-.57.08-.65.37l-.17.64-1.53.88.46-1.71c.05-.14.01-.28-.06-.41-.06-.11-.17-.21-.32-.24-.28-.08-.57.08-.65.37l-.73,2.73-.87.5-2.97-1.72v-.99l2.01-2.01c.2-.21.2-.55,0-.75-.1-.11-.24-.15-.38-.15-.13,0-.27.04-.37.15l-1.26,1.26v-1.76l.49-.49c.2-.21.2-.55,0-.75-.1-.11-.24-.15-.38-.15-.13,0-.27.04-.37.15l-.27.27h0s-.25-.26-.25-.26c-.1-.11-.24-.15-.38-.15-.13,0-.27.04-.37.15-.21.2-.21.53,0,.75l.47.47v1.76l-1.25-1.25c-.1-.11-.24-.15-.38-.15-.13,0-.27.04-.37.15-.21.2-.21.53,0,.75l2,2v1l-2.97,1.72-.86-.49-.74-2.75c-.08-.28-.38-.44-.65-.37-.15.03-.25.13-.32.25-.06.11-.1.25-.05.39l.46,1.73-1.52-.88-.18-.67c-.08-.28-.38-.44-.65-.37-.15.03-.25.13-.32.25-.06.11-.1.25-.05.39l.1.36.34.2h0l-.35-.2-.35.09c-.15.03-.25.13-.32.25-.06.11-.1.25-.05.39.07.28.36.45.65.37l.64-.17,1.53.88-1.71.46c-.15.03-.25.13-.32.25-.06.11-.1.25-.05.39.07.28.36.45.65.37l2.73-.73.88.51v3.43l-.86.5-2.74-.74c-.28-.07-.57.1-.65.37-.05.14-.01.28.06.41.06.11.17.21.32.24l1.73.46-1.52.88-.67-.18c-.28-.07-.57.1-.65.37-.05.14-.01.28.06.41.06.11.17.21.32.24l.36.1.34-.2h0l-.35.2-.09.35c-.05.14-.01.28.06.41.06.11.17.21.32.24.28.08.57-.08.65-.37l.17-.64,1.53-.88-.46,1.71c-.05.14-.01.28.06.41.06.11.17.21.32.24.28.08.57-.09.65-.37l.73-2.73.89-.51,2.96,1.71v1.01l-2.01,2.01c-.2.21-.2.55,0,.75.1.11.24.15.38.15.13,0,.27-.04.37-.15l1.26-1.26v1.76l-.49.49c-.2.21-.2.55,0,.75.1.11.24.15.38.15.13,0,.27-.04.37-.15l.27-.27h0s.25.26.25.26c.1.11.24.15.38.15.13,0,.27-.04.37-.15.21-.2.21-.53,0-.75l-.47-.47v-1.76l1.25,1.25c.1.11.24.15.38.15.13,0,.27-.04.37-.15.21-.2.21-.53,0-.75l-2-2v-1.03l2.96-1.71.88.51.74,2.74c.08.28.38.44.65.37.15-.03.25-.13.32-.25.06-.11.1-.25.05-.39l-.46-1.73,1.52.88.18.67c.08.28.38.44.65.37.15-.03.25-.13.32-.25.06-.11.1-.25.05-.39l-.1-.36-.34-.2h0l.35.2.35-.09c.15-.03.25-.13.32-.25.06-.11.1-.25.05-.39-.07-.28-.36-.45-.65-.37Z"/>
  </g>
</svg>