<?xml version="1.0" encoding="UTF-8"?>
<svg id="Layer_2" data-name="Layer 2" xmlns="http://www.w3.org/2000/svg" viewBox="0 0 52.86 52.32">
  <defs>
    <style>
      .cls-1 {
        fill: #fff;
      }

      .cls-2 {
        fill: #fbfbfb;
      }
    </style>
  </defs>
  <path class="cls-1" d="M49.32,45.52c0,2.1-1.71,3.8-3.8,3.8H6.79c-2.09,0-3.79-1.7-3.79-3.8V6.8c0-2.1,1.7-3.8,3.79-3.8h38.73c2.09,0,3.8,1.7,3.8,3.8v12.09h3V6.8c0-3.75-3.05-6.8-6.8-6.8H6.79C3.05,0,0,3.05,0,6.8v38.72c0,3.75,3.05,6.8,6.79,6.8h38.73c3.75,0,6.8-3.05,6.8-6.8v-9.64h-3v9.64Z"/>
  <path class="cls-2" d="M39.96,8.04c-.79.79-1.24,1.87-1.24,3s.45,2.2,1.24,2.99l1.26,1.27c.79.79,1.24,1.87,1.24,2.99v3.75l2.5-2.5c.79-.79,1.24-1.87,1.24-3s-.44-2.2-1.24-2.99l-1.26-1.27c-.79-.79-1.24-1.87-1.24-2.99v-3.75l-2.5,2.5Z"/>
  <path class="cls-2" d="M34.32,35.49c-.04.08-.06.18-.03.28l.07.26.24.14-.25-.14-.25.07c-.1.02-.18.09-.23.18-.04.08-.06.18-.03.28.05.2.26.32.46.27l.45-.12,1.09.63-1.22.33c-.1.02-.18.09-.23.18-.05.08-.07.18-.04.28.05.2.26.32.46.27l1.94-.52.62.36v2.44l-.61.35-1.95-.52c-.2-.04-.41.08-.46.27-.03.1,0,.2.04.29.05.08.13.15.23.17l1.23.33-1.08.63-.48-.13c-.2-.04-.41.08-.46.27-.03.1-.01.2.04.29.05.08.13.15.23.17l.25.07h0s-.07.25-.07.25c-.03.1-.01.2.04.29.05.08.13.15.23.17.2.05.41-.07.46-.27l.12-.45,1.09-.63-.33,1.22c-.03.1-.01.2.04.29.05.08.13.15.23.17.2.05.41-.07.46-.27l.52-1.94.63-.36,2.11,1.22v.72l-1.43,1.43c-.14.15-.14.39,0,.53.07.08.17.11.27.11.09,0,.19-.03.26-.11l.9-.9v1.25l-.35.35c-.14.15-.14.39,0,.53.07.08.17.11.27.11.09,0,.19-.03.26-.11l.19-.19.18.18c.07.08.17.11.27.11.09,0,.19-.03.26-.11.15-.14.15-.38,0-.53l-.33-.33v-1.25l.89.89c.07.08.17.11.27.11.09,0,.19-.03.26-.11.15-.14.15-.38,0-.53l-1.42-1.42v-.73l2.1-1.21.62.36.52,1.95c.06.2.27.32.46.27.1-.02.18-.09.23-.18.04-.08.06-.18.03-.28l-.33-1.23,1.08.63.13.48c.06.2.27.32.46.27.1-.02.18-.09.23-.18.04-.08.06-.18.03-.28l-.07-.26-.24-.14.25.14.25-.07c.1-.02.18-.09.23-.18.04-.08.06-.18.03-.28l.02-.03c-.05-.2-.26-.32-.46-.27l-.45.12-1.09-.63,1.22-.33c.1-.02.18-.09.23-.18.04-.08.06-.18.03-.28-.05-.2-.26-.32-.46-.27l-1.94.52-.63-.36v-2.43l.62-.36,1.95.52c.2.04.41-.08.46-.27.03-.1,0-.2-.04-.29-.05-.08-.13-.15-.23-.17l-1.23-.33,1.08-.63.48.13c.2.04.41-.08.46-.27.03-.1.01-.2-.04-.29-.05-.08-.13-.15-.23-.17l-.26-.07.07-.25c.03-.1.01-.2-.04-.29-.05-.08-.13-.15-.23-.17-.2-.05-.41.07-.46.27l-.12.45-1.09.63.33-1.22c.03-.1,0-.2-.04-.29-.05-.08-.13-.15-.23-.17-.2-.05-.41.07-.46.27l-.52,1.94-.62.36-2.11-1.22v-.71l1.43-1.43c.14-.15.14-.39,0-.53-.07-.08-.17-.11-.27-.11-.09,0-.19.03-.26.11l-.9.9v-1.25l.35-.35c.14-.15.14-.39,0-.53-.07-.08-.17-.11-.27-.11-.09,0-.19.03-.26.11l-.19.19-.18-.18c-.07-.08-.17-.11-.27-.11-.09,0-.19.03-.26.11-.15.14-.15.38,0,.53l.33.33v1.26l-.89-.89c-.07-.08-.17-.11-.27-.11-.09,0-.19.03-.26.11-.15.14-.15.38,0,.53l1.42,1.42v.72l-2.12,1.22-.61-.35-.52-1.95c-.06-.2-.27-.32-.46-.27-.1.02-.18.09-.23.18-.04.08-.06.18-.03.28l.33,1.23-1.08-.63-.13-.48c-.06-.2-.27-.32-.46-.27-.1.02-.18.09-.23.18Z"/>
  <path class="cls-2" d="M37.08,18.67c.4.4.62.94.62,1.5v1.87l1.25-1.25c.4-.39.62-.93.62-1.5s-.22-1.1-.62-1.49l-.63-.64c-.4-.39-.62-.93-.62-1.49v-1.87l-1.25,1.24c-.4.4-.62.94-.62,1.5s.22,1.1.62,1.5l.63.63Z"/>
  <polygon class="cls-2" points="21.71 40.47 18.54 40.47 18.54 34.14 12.23 40.47 11.97 40.47 11.97 34.14 5.65 40.47 8.82 40.47 8.82 46.79 15.13 40.47 15.39 40.47 15.39 46.79 21.71 40.47"/>
  <polygon class="cls-2" points="11.98 6.18 6.21 11.95 6.04 20.24 10.77 15.5 10.77 13.87 12.42 13.87 15.31 10.98 16.16 11.82 7.77 20.22 14.34 20.07 20.11 14.3 20.1 14.3 20.27 6.01 11.98 6.18"/>
  <polygon class="cls-2" points="34.07 31.82 34.07 21.06 20.33 32.61 26.71 37.62 34.07 31.82"/>
  <polygon class="cls-2" points="19.34 19.33 19.34 29.5 31.46 19.33 19.34 19.33"/>
  <polygon class="cls-1" points="52.86 23.77 52.86 22.86 45.65 22.86 45.65 23.77 46.54 23.77 46.54 31.01 45.65 31.01 45.65 31.92 52.86 31.92 52.86 31.01 51.97 31.01 51.97 23.77 52.86 23.77"/>
  <rect class="cls-1" x="48.35" y="23.77" width="1.81" height="7.24"/>
</svg>