<?xml version="1.0" encoding="UTF-8"?>
<svg id="Layer_2" data-name="Layer 2" xmlns="http://www.w3.org/2000/svg" viewBox="0 0 44.53 47.89">
  <defs>
    <style>
      .cls-1 {
        fill: #fff;
        stroke-width: 0px;
      }
    </style>
  </defs>
  <g id="Layer_1-2" data-name="Layer 1">
    <path class="cls-1" d="m44.53,39.89v-1h-7.96v1h.98v7h-.98v1h7.96v-1h-.98v-7h.98Zm-2.98,7h-2v-7h2v7ZM31.58,8.77v3.83c3.42,3.12,5.57,7.62,5.57,12.61,0,9.41-7.66,17.07-17.08,17.07S3,34.62,3,25.21c0-4.98,2.14-9.48,5.56-12.6v-3.84C3.39,12.4,0,18.42,0,25.21c0,11.07,9,20.07,20.07,20.07s20.08-9,20.08-20.07c0-6.79-3.39-12.81-8.57-16.44Zm-1.11,25.16c-2.49,2.96-6.23,4.85-10.4,4.85s-7.9-1.89-10.39-4.85l10.39-8.72,10.4,8.72Zm-1.4-19.91c.05.14.01.28-.05.39-.07.12-.18.22-.32.25l-.35.09-.35-.2h0l.34.2.1.36c.05.14.01.28-.05.39-.07.12-.18.22-.32.25-.27.07-.56-.1-.65-.37l-.18-.67-1.52-.88.46,1.73c.05.14.01.28-.05.39-.07.12-.18.22-.32.25-.27.07-.56-.1-.65-.37l-.74-2.74-.88-.51-2.96,1.71v1.03l2,2c.21.21.21.55,0,.75-.1.11-.24.15-.37.15-.14,0-.28-.04-.38-.15l-1.25-1.25v1.76l.47.47c.21.21.21.55,0,.75-.1.11-.24.15-.37.15-.14,0-.28-.04-.38-.15l-.25-.25h0s-.27.26-.27.26c-.1.11-.24.15-.37.15-.14,0-.28-.04-.38-.15-.2-.2-.2-.53,0-.75l.49-.49v-1.76l-1.26,1.26c-.1.11-.24.15-.37.15-.14,0-.28-.04-.38-.15-.2-.2-.2-.53,0-.75l2.01-2.01v-1.01l-2.96-1.71-.89.51-.73,2.73c-.08.29-.37.46-.65.37-.15-.03-.25-.13-.32-.24-.07-.12-.1-.26-.06-.41l.46-1.71-1.53.88-.17.64c-.08.29-.37.46-.65.37-.15-.03-.25-.13-.32-.24-.07-.12-.1-.26-.06-.41l.09-.35.35-.2h0l-.34.2-.36-.1c-.15-.03-.25-.13-.32-.24-.07-.12-.1-.26-.06-.41.07-.27.36-.44.65-.37l.67.18,1.52-.88-1.73-.46c-.15-.03-.25-.13-.32-.24-.07-.12-.1-.26-.06-.41.07-.27.36-.44.65-.37l2.74.74.86-.5v-3.43l-.88-.51-2.73.73c-.29.08-.58-.09-.65-.37-.05-.14-.01-.28.05-.39.07-.12.18-.22.32-.25l1.71-.46-1.53-.88-.64.17c-.29.08-.58-.09-.65-.37-.05-.14-.01-.28.05-.39.07-.12.18-.22.32-.25l.35-.09.35.2h0l-.34-.2-.1-.36c-.05-.14-.01-.28.05-.39.07-.12.18-.22.32-.25.27-.07.56.1.65.37l.18.67,1.52.88-.46-1.73c-.05-.14-.01-.28.05-.39.07-.12.18-.22.32-.25.27-.07.56.1.65.37l.74,2.75.86.49,2.97-1.72v-1l-2-2c-.21-.21-.21-.55,0-.75.1-.11.24-.15.37-.15.14,0,.28.04.38.15l1.25,1.25v-1.76l-.47-.47c-.21-.21-.21-.55,0-.75.1-.11.24-.15.37-.15.14,0,.28.04.38.15l.25.25h0s.27-.26.27-.26c.1-.11.24-.15.37-.15.14,0,.28.04.38.15.2.2.2.53,0,.75l-.49.49v1.76l1.26-1.26c.1-.11.24-.15.37-.15.14,0,.28.04.38.15.2.2.2.53,0,.75l-2.01,2.01v.99l2.97,1.72.87-.5.73-2.73c.08-.29.37-.46.65-.37.15.03.25.13.32.24.07.12.1.26.06.41l-.46,1.71,1.53-.88.17-.64c.08-.29.37-.46.65-.37.15.03.25.13.32.24.07.12.1.26.06.41l-.09.35h0s.36.1.36.1c.15.03.25.13.32.24.07.12.1.26.06.41-.07.27-.36.44-.65.37l-.67-.18-1.52.88,1.73.46c.15.03.25.13.32.24.07.12.1.26.06.41-.07.27-.36.44-.65.37l-2.74-.74-.87.5v3.42l.88.51,2.73-.73c.29-.08.58.09.65.37.05.14.01.28-.05.39-.07.12-.18.22-.32.25l-1.71.46,1.53.88.64-.17c.29-.08.58.09.65.37Z"/>
  </g>
</svg>