<?xml version="1.0" encoding="UTF-8"?>
<svg id="Layer_2" data-name="Layer 2" xmlns="http://www.w3.org/2000/svg" viewBox="0 0 51.18 51.48">
  <defs>
    <style>
      .cls-1 {
        fill: #fff;
        stroke-width: 0px;
      }
    </style>
  </defs>
  <g id="Layer_1-2" data-name="Layer 1">
    <path class="cls-1" d="m51.18,43.48v-1h-7.96v1h.98v7h-.98v1h7.96v-1h-.98v-7h.98Zm-2.98,7h-2v-7h2v7ZM0,3.22l2.62,15.87L5.23,3.22H0Zm15.98,0l1.87,11.38.12.74.62,3.75.44-2.69.59-3.57,1.59-9.61h-5.23ZM6.68,0l3.93,23.81L14.53,0h-7.85Zm30.02,26.65l-3.44,3.43-6.37,6.37-5.14-5.14-1.43-1.43-3.24-3.23-.13.12v21.06h19.88v-21.06l-.13-.12Zm-17.46-4.47l-.75-.75-8.2,8.2,1.9,1.9,4.76-4.75h0s.13-.13.13-.13h0s.01-.01.01-.01l3.3-3.3-1.15-1.16Zm7.65-16.61l-7.27,7.26-2.08,2.08,3.73,3.73,1.9,1.91h0s3.72,3.71,3.72,3.71l3.71-3.7h0s1.9-1.92,1.9-1.92l3.73-3.73-9.34-9.34Zm-14.7,25.97l-7.84,7.84,4.67,4.65,7.84-7.83-4.67-4.66Zm24.5-4.9h0s0,0,0,0h0Zm-1.4-5.21l-.75.75-1.15,1.16,3.3,3.3h0s.13.13.13.13h0s4.75,4.76,4.75,4.76l1.9-1.9-8.19-8.2Zm1.4,5.21h0s0,0,0,0h0Zm4.89,4.9l-4.67,4.66,5.27,5.26h5.15l2.09-2.08-7.84-7.84Zm-4.89-4.9h0s0,0,0,0h0Zm4.89,4.9l-4.67,4.66,5.27,5.26h5.15l2.09-2.08-7.84-7.84Z"/>
  </g>
</svg>