<?xml version="1.0" encoding="UTF-8"?>
<svg id="Layer_2" xmlns="http://www.w3.org/2000/svg" version="1.1" viewBox="0 0 52.17 48.93">
  <!-- Generator: Adobe Illustrator 30.5.1, SVG Export Plug-In . SVG Version: 2.1.4 Build 3)  -->
  <defs>
    <style>
      .st0 {
        fill: #fff;
      }
    </style>
  </defs>
  <path class="st0" d="M1.8,6.3l.64-.17,1.53.88-1.71.46c-.15.03-.25.13-.32.25-.06.11-.1.25-.05.39.07.28.36.45.65.37l2.73-.73.88.51v3.43l-.86.5-2.74-.74c-.28-.07-.57.1-.65.37-.05.14-.01.28.06.41.06.11.17.21.32.24l1.73.46-1.52.88-.67-.18c-.28-.07-.57.1-.65.37-.05.14,0,.28.06.41.06.11.17.21.32.24l.35.1h0s-.09.35-.09.35c-.05.14-.01.28.06.41.06.11.17.21.32.24.28.08.57-.08.65-.37l.17-.64,1.53-.88-.46,1.71c-.05.14-.01.28.06.41.06.11.17.21.32.24.28.08.57-.09.65-.37l.73-2.73.89-.51,2.96,1.71v1.01l-2.01,2.01c-.2.21-.2.55,0,.75.1.11.24.15.38.15.13,0,.27-.04.37-.15l1.26-1.26v1.76l-.49.49c-.2.21-.2.55,0,.75.1.11.24.15.38.15.13,0,.27-.04.37-.15l.27-.27.25.26c.1.11.24.15.38.15.13,0,.27-.04.37-.15.21-.2.21-.53,0-.75l-.47-.47v-1.76l1.25,1.25c.1.11.24.15.38.15.13,0,.27-.04.37-.15.21-.2.21-.53,0-.75l-2-2v-1.03l2.96-1.71.88.51.74,2.74c.08.28.38.44.65.37.15-.03.25-.13.32-.25.06-.11.1-.25.05-.39l-.46-1.73,1.52.88.18.67c.08.28.38.44.65.37.15-.03.25-.13.32-.25.06-.11.1-.25.05-.39l-.1-.36-.34-.2.35.2.35-.09c.15-.03.25-.13.32-.25.06-.11.1-.25.05-.39-.07-.28-.36-.45-.65-.37h-.02l-.64.17-1.53-.88,1.71-.46c.15-.03.25-.13.32-.25.06-.11.1-.25.05-.39-.07-.28-.36-.45-.65-.37l-2.73.73-.88-.51v-3.42l.87-.5,2.74.74c.28.07.57-.1.65-.37.05-.14.01-.28-.06-.41-.06-.11-.17-.21-.32-.24l-1.73-.46,1.52-.88.67.18c.28.07.57-.1.65-.37.05-.14.01-.28-.06-.41-.06-.11-.17-.21-.32-.24l-.36-.1.09-.35c.05-.14.01-.28-.06-.41-.06-.11-.17-.21-.32-.24-.28-.08-.57.08-.65.37l-.17.64-1.53.88.46-1.71c.05-.14.01-.28-.06-.41-.06-.11-.17-.21-.32-.24-.28-.08-.57.08-.65.37l-.73,2.73-.87.5-2.97-1.72v-.99l2.01-2.01c.2-.21.2-.55,0-.75-.1-.11-.24-.15-.38-.15-.13,0-.27.04-.37.15l-1.26,1.26v-1.76l.49-.49c.2-.21.2-.55,0-.75-.1-.11-.24-.15-.38-.15-.13,0-.27.04-.37.15l-.27.27-.25-.26c-.1-.11-.24-.15-.38-.15-.13,0-.27.04-.37.15-.21.2-.21.53,0,.75l.47.47v1.76l-1.25-1.25c-.1-.11-.24-.15-.38-.15-.13,0-.27.04-.37.15-.21.2-.21.53,0,.75l2,2v1l-2.97,1.72-.86-.49-.74-2.75c-.08-.28-.38-.44-.65-.37-.15.03-.25.13-.32.25-.06.11-.1.25-.05.39l.46,1.73-1.52-.88-.18-.67c-.08-.28-.38-.44-.65-.37-.15.03-.25.13-.32.25-.06.11-.1.25-.05.39l.1.36.34.2-.35-.2-.35.09c-.15.03-.25.13-.32.25-.06.11-.1.25-.05.39.07.28.36.45.65.37Z"/>
  <polygon class="st0" points="34.09 18.15 18.32 33.92 3.98 19.56 0 23.54 18.33 41.87 38.07 22.13 34.09 18.15"/>
  <polygon class="st0" points="33.84 3.8 14.08 23.53 18.06 27.51 33.83 11.74 44.21 22.12 28.44 37.89 32.42 41.87 52.16 22.13 52.17 22.13 33.84 3.8"/>
  <polygon class="st0" points="44.67 47.93 44.67 40.93 45.67 40.93 45.67 39.93 41.69 39.93 41.69 40.93 42.67 40.93 42.67 47.93 41.69 47.93 41.69 48.93 45.67 48.93 45.67 47.93 44.67 47.93"/>
</svg>