<?xml version="1.0" encoding="UTF-8"?>
<svg id="Layer_2" data-name="Layer 2" xmlns="http://www.w3.org/2000/svg" viewBox="0 0 52.17 48.91">
  <defs>
    <style>
      .cls-1 {
        fill: #fff;
        stroke-width: 0px;
      }
    </style>
  </defs>
  <g id="Layer_1-2" data-name="Layer 1">
    <path class="cls-1" d="m49.65,40.91v-1h-7.96v1h.98v7h-.98v1h7.96v-1h-.98v-7h.98Zm-2.98,7h-2v-7h2v7Zm5.49-25.8l-19.74,19.74-3.98-3.98,15.77-15.77-10.38-10.38-15.77,15.77-3.98-3.98L33.84,3.78l18.33,18.33Zm-18.07-3.98l-15.77,15.77L3.98,19.54l-3.98,3.98,18.33,18.33,19.74-19.74-3.98-3.98Zm-15.52-4.48l-.64.17-1.53-.88,1.71-.46c.15-.03.25-.13.32-.25.06-.11.1-.25.05-.39-.07-.28-.36-.45-.65-.37l-2.73.73-.88-.51v-3.42l.87-.5,2.74.74c.28.07.57-.1.65-.37.05-.14.01-.28-.06-.41-.06-.11-.17-.21-.32-.24l-1.73-.46,1.52-.88.67.18c.28.07.57-.1.65-.37.05-.14.01-.28-.06-.41-.06-.11-.17-.21-.32-.24l-.36-.1h0s.09-.35.09-.35c.05-.14.01-.28-.06-.41-.06-.11-.17-.21-.32-.24-.28-.08-.57.08-.65.37l-.17.64-1.53.88.46-1.71c.05-.14.01-.28-.06-.41-.06-.11-.17-.21-.32-.24-.28-.08-.57.08-.65.37l-.73,2.73-.87.5-2.97-1.72v-.99l2.01-2.01c.2-.21.2-.55,0-.75-.1-.11-.24-.15-.38-.15-.13,0-.27.04-.37.15l-1.26,1.26v-1.76l.49-.49c.2-.21.2-.55,0-.75-.1-.11-.24-.15-.38-.15-.13,0-.27.04-.37.15l-.27.27h0s-.25-.26-.25-.26c-.1-.11-.24-.15-.38-.15-.13,0-.27.04-.37.15-.21.2-.21.53,0,.75l.47.47v1.76l-1.25-1.25c-.1-.11-.24-.15-.38-.15-.13,0-.27.04-.37.15-.21.2-.21.53,0,.75l2,2v1l-2.97,1.72-.86-.49-.74-2.75c-.08-.28-.38-.44-.65-.37-.15.03-.25.13-.32.25-.06.11-.1.25-.05.39l.46,1.73-1.52-.88-.18-.67c-.08-.28-.38-.44-.65-.37-.15.03-.25.13-.32.25-.06.11-.1.25-.05.39l.1.36.34.2h0l-.35-.2-.35.09c-.15.03-.25.13-.32.25-.06.11-.1.25-.05.39.07.28.36.45.65.37l.64-.17,1.53.88-1.71.46c-.15.03-.25.13-.32.25-.06.11-.1.25-.05.39.07.28.36.45.65.37l2.73-.73.88.51v3.43l-.86.5-2.74-.74c-.28-.07-.57.1-.65.37-.05.14-.01.28.06.41.06.11.17.21.32.24l1.73.46-1.52.88-.67-.18c-.28-.07-.57.1-.65.37-.05.14-.01.28.06.41.06.11.17.21.32.24l.36.1.34-.2h0l-.35.2-.09.35c-.05.14-.01.28.06.41.06.11.17.21.32.24.28.08.57-.08.65-.37l.17-.64,1.53-.88-.46,1.71c-.05.14-.01.28.06.41.06.11.17.21.32.24.28.08.57-.09.65-.37l.73-2.73.89-.51,2.96,1.71v1.01l-2.01,2.01c-.2.21-.2.55,0,.75.1.11.24.15.38.15.13,0,.27-.04.37-.15l1.26-1.26v1.76l-.49.49c-.2.21-.2.55,0,.75.1.11.24.15.38.15.13,0,.27-.04.37-.15l.27-.27h0s.25.26.25.26c.1.11.24.15.38.15.13,0,.27-.04.37-.15.21-.2.21-.53,0-.75l-.47-.47v-1.76l1.25,1.25c.1.11.24.15.38.15.13,0,.27-.04.37-.15.21-.2.21-.53,0-.75l-2-2v-1.03l2.96-1.71.88.51.74,2.74c.08.28.38.44.65.37.15-.03.25-.13.32-.25.06-.11.1-.25.05-.39l-.46-1.73,1.52.88.18.67c.08.28.38.44.65.37.15-.03.25-.13.32-.25.06-.11.1-.25.05-.39l-.1-.36-.34-.2h0l.35.2.35-.09c.15-.03.25-.13.32-.25.06-.11.1-.25.05-.39-.07-.28-.36-.45-.65-.37Z"/>
  </g>
</svg>