<?xml version="1.0" encoding="UTF-8"?>
<svg id="Layer_2" data-name="Layer 2" xmlns="http://www.w3.org/2000/svg" viewBox="0 0 43.46 50.4">
  <defs>
    <style>
      .cls-1 {
        fill: #fff;
        stroke-width: 0px;
      }
    </style>
  </defs>
  <g id="Layer_1-2" data-name="Layer 1">
    <path class="cls-1" d="m34.6,36.6l-3.96,3.95,6.64,6.63,3.96-3.94-6.64-6.64Zm0,0l-3.96,3.95,6.64,6.63,3.96-3.94-6.64-6.64Zm-5.33-8.56l-.64.64-.97.98,2.8,2.8h0s.11.11.11.11h0s4.02,4.03,4.02,4.03l1.61-1.61-6.94-6.95Zm-19.57,8.56l-6.64,6.64,3.96,3.94,6.64-6.63-3.96-3.95Zm20.37-14.08l-4.77,4.77h0s-3.15,3.15-3.15,3.15l-3.15-3.14h0s-4.77-4.78-4.77-4.78l5.67-5.66h4.5l5.67,5.66Zm-14.4,6.16l-.64-.64-6.95,6.95,1.61,1.61,4.03-4.02h0s.11-.11.11-.11h0s0,0,0,0l2.8-2.8-.97-.98Zm14.9,3.89v17.84H13.74v-17.84l.11-.1,2.74,2.74,1.21,1.21,4.35,4.35,4.35-4.35,1.04-1.04,2.91-2.91.11.1Zm12.88-17.21h-1.5v-1.5h0v-2.25h1.5v3.75Zm-3.04,0h-5.9v-1.5h5.9v1.5Zm-2.97-13.85h-2.94V0h2.94v1.5Zm6.01,2.25h-1.5V1.5h-2.25V0h3.75v3.75Zm0,5.89h-1.5v-3.93h1.5v3.93Zm-39.21,1.46v-6.85h18.75v6.85H4.25Zm28.82,4.25H0V0h33.07v15.35ZM1.5,13.85h30.07V1.5H1.5v12.35Z"/>
  </g>
</svg>