<?xml version="1.0" encoding="UTF-8"?>
<svg id="Layer_2" data-name="Layer 2" xmlns="http://www.w3.org/2000/svg" viewBox="0 0 51.66 52.33">
  <defs>
    <style>
      .cls-1 {
        fill: #fff;
        stroke-width: 0px;
      }
    </style>
  </defs>
  <g id="Layer_1-2" data-name="Layer 1">
    <path class="cls-1" d="m50.4,44.33v7h1.26v1h-4.99v-1h1.26v-7h-1.26v-1h4.99v1h-1.26Zm-.97-4.95l-4.67,4.65-7.84-7.83,4.67-4.66,7.84,7.84Zm-12.72-12.74h0s0,0,0,0h0Zm12.72,12.74l-4.67,4.65-7.84-7.83,4.67-4.66,7.84,7.84Zm-12.72-12.74h0s0,0,0,0h0Zm6.78,2.99l-1.9,1.9-4.75-4.75h0s-.13-.13-.13-.13h0s0-.01,0-.01l-3.3-3.3,1.15-1.16.75-.75,8.19,8.2Zm-6.78-2.99h0s0,0,0,0h0Zm-19.84,9.56l-7.84,7.83-4.67-4.65,7.84-7.84,4.67,4.66Zm19.37-21.29l-3.73,3.73-1.9,1.91h0s-3.71,3.71-3.71,3.71l-3.72-3.7h0s-1.9-1.92-1.9-1.92l-3.73-3.73,9.35-9.34,9.34,9.34Zm-15.84,8.43l-3.3,3.3h-.01s-.13.13-.13.13h0s-4.76,4.76-4.76,4.76l-1.9-1.9,8.2-8.2.75.75,1.15,1.16Zm16.31,3.31l-3.44,3.43-1.23,1.23-5.14,5.14-5.14-5.14-1.43-1.43-3.24-3.23-.13.12v21.06h19.88v-21.06l-.13-.12Zm-26.09-2.84L14.54,0h-7.86l3.93,23.81ZM15.98,3.22h5.24l-2.62,15.87-2.62-15.87ZM2.62,19.1L0,3.22h5.24s-2.62,15.87-2.62,15.87Z"/>
  </g>
</svg>