<?xml version="1.0" encoding="UTF-8"?>
<svg id="Layer_2" data-name="Layer 2" xmlns="http://www.w3.org/2000/svg" viewBox="0 0 52.88 52.32">
  <defs>
    <style>
      .cls-1 {
        fill: #fff;
        stroke-width: 0px;
      }
    </style>
  </defs>
  <g id="Layer_1-2" data-name="Layer 1">
    <path class="cls-1" d="m52.88,23.36v-1h-12.06v1h1.08v8h-1.08v1h12.06v-1h-1.08v-8h1.08Zm-9.02,8v-8h2v8h-2Zm5.97,0h-2v-8h2v8Zm-26.35.72v9.04l-5.88,1.54,6.94,1.67v-11.99l-1.06-.26Zm-8.11-1.94l-7.02-1.83v11.98l7.02,1.84,7.03-1.84v-11.98l-7.03,1.83Zm2.63,5.94l-2.63,2.63-3.18-3.18,3.18-3.19,3.19,3.18-.56.56Zm-5.11,6.51l-5.62-1.47v-9.04l-1.07.26v11.99l6.69-1.61.26-.06-.26-.07Zm.26.07l-.26-.07v2.8l1.24-.45,1.24.45v-2.15l-2.22-.58ZM15.22,7.66v7.64h2.93v-7.64h-2.93Zm-4.94,8.73v-1.09h3.87v-2.73h-6.9v7.88l2.83,2.84h9.23l2.83-2.84v-4.06h-11.86Zm8.96-8.73v7.64h2.9v-7.64h-2.9Zm-11.99,0v3.82h6.9v-3.82h-6.9Zm20.6,6.44v2.39h3.06v-2.39h-3.06Zm0-5.58v2.38h5.71l2.38-2.38h-8.09Zm6.35,11.26h-6.35v2.38h8.74l-2.39-2.38Zm6.42-4.91l3.11-3.11-4.1-4.1-7,6.99v.74s6.25,6.24,6.25,6.24v-2.74h3.44l-1.7-1.7v-2.32Zm-2.35,21.01v5.29h2.44v1.37h-2.44v3.62h2.83l4.7-4.7v-5.58h-7.53Zm-1.37-3.32v-3.62h-2.82l-4.7,4.7v7.82l4.7,4.7h2.82v-5.57h-4.79v-1.37h4.79v-5.29h-2.44v-1.37h2.44Zm15.42-13.67V6.8c0-3.75-3.05-6.8-6.8-6.8H6.79C3.05,0,0,3.05,0,6.8v38.72c0,3.75,3.05,6.8,6.79,6.8h38.73c3.75,0,6.8-3.05,6.8-6.8v-9.64h-3v9.64c0,2.1-1.71,3.8-3.8,3.8H6.79c-2.09,0-3.79-1.7-3.79-3.8V6.8c0-2.1,1.7-3.8,3.79-3.8h38.73c2.09,0,3.8,1.7,3.8,3.8v12.09h3Z"/>
  </g>
</svg>